<mxfile host="app.diagrams.net" modified="2021-06-09T14:42:27.031Z" agent="5.0 (Macintosh; Intel Mac OS X 10_15_5) AppleWebKit/605.1.15 (KHTML, like Gecko) Version/13.1.1 Safari/605.1.15" etag="UCjUWrxor_A-hdRnxNmA" version="14.5.7" type="github">
  <diagram id="zpzRGGZIATb5uv67xp2l" name="Page-1">
    <mxGraphModel dx="946" dy="662" grid="1" gridSize="10" guides="1" tooltips="1" connect="1" arrows="1" fold="1" page="1" pageScale="1" pageWidth="827" pageHeight="1169" math="0" shadow="0">
      <root>
        <mxCell id="0" />
        <mxCell id="1" parent="0" />
        <mxCell id="PBVlm2eIlunIFX8OE1BJ-2" value="name" style="ellipse;whiteSpace=wrap;html=1;fillColor=#ffe6cc;strokeColor=#d79b00;sketch=1;" vertex="1" parent="1">
          <mxGeometry x="100" y="570" width="100" height="60" as="geometry" />
        </mxCell>
        <mxCell id="PBVlm2eIlunIFX8OE1BJ-3" value="status" style="ellipse;whiteSpace=wrap;html=1;fillColor=#ffe6cc;strokeColor=#d79b00;sketch=1;" vertex="1" parent="1">
          <mxGeometry x="361" y="570" width="100" height="60" as="geometry" />
        </mxCell>
        <mxCell id="PBVlm2eIlunIFX8OE1BJ-4" value="location" style="ellipse;whiteSpace=wrap;html=1;fillColor=#ffe6cc;strokeColor=#d79b00;sketch=1;" vertex="1" parent="1">
          <mxGeometry x="620" y="570" width="100" height="60" as="geometry" />
        </mxCell>
        <mxCell id="PBVlm2eIlunIFX8OE1BJ-28" value="" style="endArrow=none;html=1;strokeWidth=1;fontColor=#FFFFFF;strokeColor=#FFFFFF;" edge="1" parent="1">
          <mxGeometry width="50" height="50" relative="1" as="geometry">
            <mxPoint x="100" y="640" as="sourcePoint" />
            <mxPoint x="730" y="640" as="targetPoint" />
          </mxGeometry>
        </mxCell>
        <mxCell id="PBVlm2eIlunIFX8OE1BJ-29" value="" style="endArrow=none;html=1;strokeWidth=1;fontColor=#FFFFFF;strokeColor=#FFFFFF;" edge="1" parent="1">
          <mxGeometry width="50" height="50" relative="1" as="geometry">
            <mxPoint x="90" y="630" as="sourcePoint" />
            <mxPoint x="90" y="170" as="targetPoint" />
          </mxGeometry>
        </mxCell>
      </root>
    </mxGraphModel>
  </diagram>
</mxfile>
